<svg width="568" height="638" viewBox="0 0 568 638" fill="none" xmlns="http://www.w3.org/2000/svg">
<path d="M142.955 55.9935C185.411 56.0274 227.731 73.4174 282 108.486V497.413C227.421 475.125 184.429 463.96 141.505 463.99C98.5892 464.019 55.925 475.239 2 497.407V108.496C57.5383 73.2867 100.493 55.9598 142.955 55.9935Z" fill="#690000" stroke="black" stroke-width="4"/>
<path d="M22.5 75.4985C77.8782 40.4449 115.578 31.3694 152.782 39.4487C171.572 43.529 190.364 52.011 211.364 63.9653C232.144 75.7939 254.956 90.9428 282 108.482V497.401C255.326 486.328 232.74 475.866 212.057 466.941C190.715 457.732 171.471 450.197 152.226 445.545C114.237 436.364 76.4576 438.466 22.5 460.413V75.4985Z" fill="#9E0000" stroke="black" stroke-width="4"/>
<path d="M114.827 2.22168C133.345 0.819201 148.954 6.14484 164.648 15.9404C180.425 25.7876 196.143 40.0507 214.944 56.4678C233.488 72.659 254.902 90.8183 282 108.479V497.393C255.6 486.206 234.6 472.936 216.333 459.884C206.873 453.124 198.163 446.435 189.784 440.104C181.42 433.782 173.387 427.818 165.351 422.565C149.262 412.051 133.051 404.321 113.81 402.184C95.2142 400.118 73.982 403.295 47.5 413.92V29C74.9666 11.656 96.4428 3.61411 114.827 2.22168Z" fill="#FF0000" stroke="black" stroke-width="4"/>
<path d="M425.045 55.9935C382.589 56.0274 340.269 73.4174 286 108.486V497.413C340.579 475.125 383.571 463.96 426.495 463.99C469.411 464.019 512.075 475.239 566 497.407V108.496C510.462 73.2867 467.507 55.9598 425.045 55.9935Z" fill="#9D9D9D" stroke="black" stroke-width="4"/>
<path d="M545.5 75.4985C490.122 40.4449 452.422 31.3694 415.218 39.4487C396.428 43.529 377.636 52.011 356.636 63.9653C335.856 75.7939 313.044 90.9428 286 108.482V497.401C312.674 486.328 335.26 475.866 355.943 466.941C377.285 457.732 396.529 450.197 415.774 445.545C453.763 436.364 491.542 438.466 545.5 460.413V75.4985Z" fill="#CECECE" stroke="black" stroke-width="4"/>
<path d="M453.173 2.22168C434.655 0.819201 419.046 6.14484 403.352 15.9404C387.575 25.7876 371.857 40.0507 353.056 56.4678C334.512 72.659 313.098 90.8183 286 108.479V497.393C312.4 486.206 333.4 472.936 351.667 459.884C361.127 453.124 369.837 446.435 378.216 440.104C386.58 433.782 394.613 427.818 402.649 422.565C418.738 412.051 434.949 404.321 454.19 402.184C472.786 400.118 494.018 403.295 520.5 413.92V29C493.033 11.656 471.557 3.61411 453.173 2.22168Z" fill="white" stroke="black" stroke-width="4"/>
<mask id="path-7-outside-1_6_98" maskUnits="userSpaceOnUse" x="135" y="129" width="299" height="154" fill="black">
<rect fill="white" x="135" y="129" width="299" height="154"/>
<path d="M430 278.5C430 239.911 414.671 202.903 387.384 175.616C360.097 148.329 323.089 133 284.5 133C245.911 133 208.903 148.329 181.616 175.616C154.329 202.902 139 239.911 139 278.5L284.5 278.5H430Z"/>
</mask>
<path d="M430 278.5C430 239.911 414.671 202.903 387.384 175.616C360.097 148.329 323.089 133 284.5 133C245.911 133 208.903 148.329 181.616 175.616C154.329 202.902 139 239.911 139 278.5L284.5 278.5H430Z" fill="#EABCBC"/>
<path d="M430 278.5C430 239.911 414.671 202.903 387.384 175.616C360.097 148.329 323.089 133 284.5 133C245.911 133 208.903 148.329 181.616 175.616C154.329 202.902 139 239.911 139 278.5L284.5 278.5H430Z" stroke="#352D3B" stroke-width="8" mask="url(#path-7-outside-1_6_98)"/>
<mask id="path-8-outside-2_6_98" maskUnits="userSpaceOnUse" x="135" y="274" width="299" height="154" fill="black">
<rect fill="white" x="135" y="274" width="299" height="154"/>
<path d="M430 278.5C430 317.089 414.671 354.097 387.384 381.384C360.097 408.671 323.089 424 284.5 424C245.911 424 208.903 408.671 181.616 381.384C154.329 354.098 139 317.089 139 278.5L284.5 278.5H430Z"/>
</mask>
<path d="M430 278.5C430 317.089 414.671 354.097 387.384 381.384C360.097 408.671 323.089 424 284.5 424C245.911 424 208.903 408.671 181.616 381.384C154.329 354.098 139 317.089 139 278.5L284.5 278.5H430Z" fill="#281E1E" fill-opacity="0.75"/>
<path d="M430 278.5C430 317.089 414.671 354.097 387.384 381.384C360.097 408.671 323.089 424 284.5 424C245.911 424 208.903 408.671 181.616 381.384C154.329 354.098 139 317.089 139 278.5L284.5 278.5H430Z" stroke="#352D3B" stroke-width="8" mask="url(#path-8-outside-2_6_98)"/>
<path d="M393 181C393 181 359.694 212 280 212" stroke="#352D3B" stroke-width="10"/>
<path d="M176 180C176 180 209.306 212 289 212" stroke="#352D3B" stroke-width="10"/>
<line x1="283.5" y1="134.196" x2="285" y2="259.199" stroke="#352D3B" stroke-width="10"/>
<path d="M284.975 137.724C334.66 136.294 376.585 192.399 378.618 263.037C378.524 296.103 381.799 274.168 332.114 275.598" stroke="#352D3B" stroke-width="10"/>
<path d="M280.414 137.685C264.82 138.738 250.197 146.78 237.839 159.927C250.181 146.83 264.796 138.801 280.412 137.752L280.414 137.685Z" fill="#352D3B" stroke="#352D3B" stroke-width="10"/>
<rect x="139.5" y="265.5" width="290" height="25" fill="#352D3B" stroke="#352D3B"/>
<circle cx="285.5" cy="278.759" r="22" fill="#352D3B" stroke="#352D3B"/>
<circle cx="285.5" cy="278.759" r="11" fill="white" stroke="#352D3B"/>
<path d="M109.624 592.304C107.128 592.304 105.016 592.24 103.288 592.112C101.624 591.92 99.416 591.632 96.664 591.248L96.568 601.328C96.504 603.056 96.472 605.52 96.472 608.72C96.472 610.384 95.992 611.696 95.032 612.656C94.136 613.552 93.112 614 91.96 614C89.848 614 88.28 613.744 87.256 613.232C86.232 612.656 85.72 611.664 85.72 610.256C85.72 608.4 85.88 605.776 86.2 602.384C86.904 595.088 87.256 587.6 87.256 579.92C87.256 572.752 87.032 566 86.584 559.664C86.648 558.768 87.096 557.744 87.928 556.592C88.824 555.44 89.944 554.8 91.288 554.672C92.76 554.672 95.096 554.416 98.296 553.904C101.624 553.392 104.152 553.136 105.88 553.136C111.128 553.136 115.192 553.648 118.072 554.672C121.016 555.696 123.96 557.392 126.904 559.76C130.104 564.752 131.704 568.272 131.704 570.32C131.704 574.608 130.84 578.416 129.112 581.744C127.384 585.072 124.856 587.664 121.528 589.52C118.2 591.376 114.232 592.304 109.624 592.304ZM107.416 561.296C105.368 561.296 103.576 561.424 102.04 561.68C100.568 561.872 98.776 562.224 96.664 562.736C96.92 568.624 97.048 572.912 97.048 575.6C97.048 578.352 96.952 580.656 96.76 582.512C99.512 583.088 101.688 583.472 103.288 583.664C104.888 583.792 106.68 583.856 108.664 583.856C113.4 583.856 116.728 582.64 118.648 580.208C120.632 577.712 121.624 574.832 121.624 571.568C121.624 570.608 121.336 569.424 120.76 568.016C120.184 566.608 119.672 565.68 119.224 565.232C117.496 563.696 115.8 562.672 114.136 562.16C112.536 561.584 110.296 561.296 107.416 561.296ZM174.042 583.184C174.554 584.08 174.97 585.392 175.29 587.12C175.61 588.784 175.77 590.288 175.77 591.632C175.77 594.128 175.226 597.68 174.138 602.288C169.722 610.352 163.194 614.384 154.554 614.384C151.354 614.384 148.09 613.328 144.762 611.216C141.434 609.104 139.13 606.672 137.85 603.92C136.122 598.416 135.258 594.928 135.258 593.456C135.258 590.896 135.802 588.176 136.89 585.296C138.042 582.416 139.482 579.92 141.21 577.808C142.298 576.336 144.25 575.088 147.066 574.064C149.882 572.976 152.442 572.432 154.746 572.432C159.226 572.432 163.034 573.296 166.17 575.024C169.306 576.688 171.93 579.408 174.042 583.184ZM165.69 598.64C166.01 597.808 166.17 595.664 166.17 592.208C166.17 590.352 165.818 588.528 165.114 586.736C164.474 584.944 163.514 583.408 162.234 582.128C162.106 582 161.754 581.808 161.178 581.552C160.602 581.232 159.802 580.944 158.778 580.688C157.818 580.368 156.698 580.208 155.418 580.208C151.834 580.208 149.21 581.648 147.546 584.528C145.882 587.408 145.049 590.672 145.049 594.32C145.049 594.96 145.21 596.176 145.53 597.968C145.914 599.76 146.234 600.88 146.49 601.328C146.682 601.776 147.162 602.416 147.93 603.248C148.762 604.016 149.754 604.72 150.906 605.36C152.122 605.936 153.37 606.224 154.65 606.224C157.53 606.224 159.834 605.552 161.562 604.208C163.29 602.8 164.666 600.944 165.69 598.64ZM192.543 614.384C191.263 614.384 190.175 614.16 189.279 613.712C188.383 613.264 187.839 612.784 187.647 612.272C186.943 609.712 186.591 606.352 186.591 602.192C186.591 594.512 186.719 588.272 186.975 583.472C187.231 577.776 187.359 572.304 187.359 567.056C187.359 565.52 187.167 563.28 186.783 560.336C186.719 559.824 186.623 558.896 186.495 557.552C186.367 556.208 186.303 554.96 186.303 553.808C186.303 552.4 186.783 551.28 187.743 550.448C188.767 549.616 190.079 549.2 191.679 549.2C192.959 549.2 193.983 549.616 194.751 550.448C195.583 551.216 195.999 552.272 195.999 553.616C195.999 555.664 196.063 558.544 196.191 562.256C196.319 565.712 196.383 568.304 196.383 570.032C196.383 571.952 196.319 574.512 196.191 577.712C196.063 579.632 195.999 581.04 195.999 581.936C195.999 584.752 196.031 587.088 196.095 588.944C198.463 586.576 201.567 583.792 205.406 580.592C209.247 577.392 212.223 575.152 214.335 573.872C216.575 572.528 218.047 571.856 218.751 571.856C220.095 571.856 221.247 572.144 222.207 572.72C223.167 573.296 223.647 574.128 223.647 575.216C223.647 576.304 223.487 577.168 223.167 577.808C222.847 578.448 222.271 579.088 221.439 579.728L209.055 588.752C210.463 589.456 211.647 590.352 212.607 591.44C213.631 592.528 214.655 593.872 215.679 595.472C217.855 599.056 219.583 601.68 220.863 603.344C222.207 605.008 223.423 605.84 224.511 605.84L226.911 605.744C227.359 605.744 227.743 606 228.062 606.512C228.447 607.024 228.639 607.76 228.639 608.72C228.639 610.192 227.903 611.376 226.431 612.272C225.023 613.168 223.423 613.616 221.631 613.616C219.135 613.616 216.927 612.656 215.007 610.736C213.087 608.752 211.263 606.096 209.535 602.768C207.039 598.032 204.575 595.216 202.143 594.32L195.999 599.312L196.383 609.776C196.383 611.44 195.935 612.624 195.039 613.328C194.207 614.032 193.375 614.384 192.543 614.384ZM258.936 553.136C260.28 553.136 261.336 553.424 262.104 554C262.936 554.576 263.352 555.312 263.352 556.208C263.352 557.936 262.52 559.632 260.856 561.296C259.256 562.896 257.56 564.208 255.768 565.232C254.808 565.808 253.56 566.288 252.024 566.672C250.552 567.056 249.432 567.248 248.664 567.248C247.32 567.248 246.648 566.608 246.648 565.328C246.648 564.944 246.776 564.592 247.032 564.272C247.288 563.952 247.832 563.472 248.664 562.832C248.92 562.576 249.304 562.224 249.816 561.776C250.392 561.264 250.936 560.688 251.448 560.048C251.96 559.344 252.472 558.416 252.984 557.264C253.752 555.728 254.584 554.672 255.48 554.096C256.44 553.456 257.592 553.136 258.936 553.136ZM233.976 593.648C233.976 591.216 234.424 588.784 235.32 586.352C236.216 583.856 237.4 581.584 238.872 579.536C240.344 577.488 242.68 575.824 245.88 574.544C249.08 573.2 251.928 572.528 254.424 572.528C256.984 572.528 259.576 572.88 262.2 573.584C264.888 574.288 266.744 575.376 267.768 576.848C270.136 580.176 271.32 583.44 271.32 586.64C271.32 588.368 270.936 589.84 270.168 591.056C269.464 592.272 268.44 593.584 267.096 594.992C266.008 596.144 264.28 596.912 261.912 597.296C259.608 597.68 257.304 597.872 255 597.872C253.528 597.872 251.736 597.744 249.624 597.488C247.512 597.168 245.464 596.784 243.48 596.336C243.608 597.616 243.928 598.864 244.44 600.08C244.952 601.296 245.56 602.224 246.264 602.864C247.544 604.08 248.856 604.848 250.2 605.168C251.608 605.488 253.4 605.648 255.576 605.648C257.88 605.648 260.024 605.264 262.008 604.496C263.608 603.92 264.92 603.632 265.944 603.632C267.16 603.632 268.088 604.016 268.728 604.784C269.368 605.488 269.688 606.416 269.688 607.568C269.688 609.168 268.76 610.48 266.904 611.504C265.048 612.528 262.904 613.296 260.472 613.808C258.104 614.256 256.184 614.48 254.712 614.48C251.704 614.48 248.792 613.936 245.976 612.848C243.16 611.76 240.824 610.224 238.968 608.24C237.432 606.448 236.216 604.304 235.32 601.808C234.424 599.248 233.976 596.528 233.976 593.648ZM254.904 580.688C253.496 580.688 252.088 580.976 250.68 581.552C249.272 582.064 248.12 582.8 247.224 583.76C246.072 584.976 245.272 585.968 244.824 586.736C244.44 587.44 244.184 588.432 244.056 589.712C245.656 590.224 248.984 590.48 254.04 590.48C256.792 590.48 258.904 590.064 260.376 589.232C261.912 588.4 262.68 587.312 262.68 585.968C262.68 584.624 261.848 583.408 260.184 582.32C258.52 581.232 256.76 580.688 254.904 580.688ZM326.094 612.56C325.262 611.472 324.558 610.288 323.982 609.008C323.406 607.664 322.798 606.064 322.158 604.208C322.03 603.888 321.646 602.928 321.006 601.328C320.43 599.728 319.758 598.352 318.99 597.2C314.958 597.776 311.662 598.064 309.102 598.064C307.694 598.064 306.126 598.032 304.398 597.968C302.734 597.84 301.486 597.776 300.654 597.776C297.454 597.52 294.894 597.392 292.974 597.392C292.206 598.416 291.534 599.504 290.958 600.656C290.446 601.808 289.774 603.536 288.942 605.84C287.79 609.168 286.798 611.536 285.966 612.944C285.39 613.904 284.27 614.384 282.606 614.384C281.198 614.384 279.886 614.096 278.67 613.52C277.518 612.88 276.942 612.016 276.942 610.928C277.454 608.496 278.254 605.936 279.342 603.248C280.494 600.496 282.126 596.848 284.238 592.304L288.078 582.896C290.19 577.52 292.11 572.912 293.838 569.072C295.63 565.232 297.966 560.688 300.846 555.44C301.23 554.672 301.87 554.032 302.766 553.52C303.662 552.944 304.654 552.656 305.742 552.656C306.958 552.656 307.822 552.752 308.334 552.944C308.91 553.072 309.358 553.328 309.678 553.712C309.998 554.032 310.478 554.736 311.118 555.824C313.294 559.216 315.15 562.704 316.686 566.288C318.286 569.872 320.302 574.832 322.734 581.168L324.75 586.256C326.542 590.864 328.078 594.736 329.358 597.872C330.702 600.944 332.174 603.76 333.774 606.32C334.798 607.984 335.31 609.136 335.31 609.776C335.31 611.312 334.83 612.496 333.87 613.328C332.974 614.096 331.79 614.48 330.318 614.48C328.462 614.48 327.054 613.84 326.094 612.56ZM316.206 589.328C315.182 587.152 313.71 583.376 311.79 578C309.806 572.24 307.822 567.664 305.838 564.272C304.622 567.344 302.83 571.312 300.462 576.176C298.862 579.184 297.038 583.536 294.99 589.232C299.086 589.744 303.502 590 308.238 590C311.63 590 314.286 589.776 316.206 589.328ZM341.901 580.592C341.005 580.464 340.269 580.112 339.693 579.536C339.181 578.896 338.925 578.128 338.925 577.232C338.925 576.08 339.373 575.12 340.269 574.352C340.461 574.16 340.781 574 341.229 573.872C341.677 573.68 342.029 573.52 342.285 573.392C343.693 572.944 344.589 572.592 344.973 572.336C346.445 571.44 347.437 569.968 347.949 567.92C348.461 565.488 348.781 563.824 348.909 562.928C349.037 561.52 349.485 560.464 350.253 559.76C351.085 558.992 352.109 558.608 353.325 558.608C354.925 558.608 356.045 559.024 356.685 559.856C357.325 560.688 357.645 562.224 357.645 564.464C357.645 567.408 356.941 570.192 355.533 572.816C356.429 572.816 357.901 572.752 359.949 572.624C363.021 572.496 365.165 572.432 366.381 572.432C367.469 572.432 368.397 572.72 369.165 573.296C369.997 573.808 370.413 574.576 370.413 575.6C370.413 578.032 369.293 579.472 367.053 579.92C365.005 580.496 361.293 580.848 355.917 580.976C355.469 587.248 355.245 592.208 355.245 595.856C355.245 598.096 355.341 599.696 355.533 600.656C355.917 602.64 356.557 604.112 357.453 605.072C358.413 605.968 359.821 606.416 361.677 606.416C362.573 606.416 363.917 606.192 365.709 605.744C366.797 605.424 367.661 605.264 368.301 605.264C369.133 605.264 369.773 605.552 370.221 606.128C370.669 606.704 370.893 607.472 370.893 608.432C370.893 610.16 369.773 611.6 367.533 612.752C365.293 613.84 362.637 614.384 359.565 614.384C357.645 614.384 355.757 613.936 353.901 613.04C352.045 612.08 350.477 610.928 349.197 609.584C348.941 609.456 348.557 608.752 348.045 607.472C347.597 606.192 347.149 604.784 346.701 603.248C346.509 602.48 346.413 600.624 346.413 597.68C346.413 594.864 346.605 590 346.989 583.088L347.085 580.976C346.637 580.976 345.805 580.944 344.589 580.88C343.373 580.752 342.477 580.656 341.901 580.592ZM388.559 599.12C388.559 601.552 388.911 603.44 389.615 604.784C390.383 606.064 391.343 606.704 392.495 606.704C393.135 606.704 393.743 606.672 394.319 606.608C394.895 606.48 395.471 606.416 396.047 606.416C396.687 606.416 397.231 606.736 397.679 607.376C398.191 608.016 398.447 608.72 398.447 609.488C398.447 611.024 397.711 612.24 396.239 613.136C394.831 613.968 392.911 614.384 390.479 614.384C388.751 614.384 386.991 613.872 385.199 612.848C383.471 611.76 382.031 610.096 380.879 607.856C379.727 605.552 379.151 602.704 379.151 599.312C379.151 592.016 379.279 585.84 379.535 580.784C379.855 574.768 380.015 567.184 380.015 558.032C380.015 555.152 380.175 553.136 380.495 551.984C380.879 551.088 381.487 550.416 382.319 549.968C383.215 549.456 384.143 549.2 385.103 549.2C386.063 549.2 386.895 549.36 387.599 549.68C388.367 550 388.879 550.512 389.135 551.216C389.391 551.984 389.551 552.752 389.615 553.52C389.743 554.224 389.807 555.248 389.807 556.592C389.807 559.216 389.711 561.744 389.519 564.176C389.391 567.12 389.327 569.264 389.327 570.608C388.815 581.872 388.559 591.376 388.559 599.12ZM441.474 614.384C439.298 614.384 437.634 614.064 436.482 613.424C435.33 612.72 434.082 611.44 432.738 609.584C431.074 611.056 428.578 612.24 425.25 613.136C421.986 614.032 419.17 614.48 416.802 614.48C412.898 614.48 409.73 613.424 407.298 611.312C404.93 609.136 403.746 605.968 403.746 601.808C403.746 600.016 404.226 598.384 405.186 596.912C406.21 595.376 407.522 594.032 409.122 592.88C410.914 591.664 413.026 590.704 415.458 590C417.954 589.296 420.226 588.944 422.274 588.944C425.73 588.944 428.802 589.264 431.49 589.904V589.808C431.49 586.352 430.626 583.984 428.898 582.704C427.234 581.36 424.546 580.688 420.834 580.688C418.466 580.688 416.418 581.744 414.69 583.856C414.05 584.688 412.706 585.104 410.658 585.104C409.634 585.104 408.866 584.688 408.354 583.856C407.906 582.96 407.682 582.064 407.682 581.168C407.682 579.312 408.45 577.712 409.986 576.368C411.586 575.024 413.506 574.032 415.746 573.392C417.986 572.688 420.066 572.336 421.986 572.336C423.842 572.336 426.05 572.72 428.61 573.488C431.17 574.256 433.25 575.28 434.85 576.56C436.77 578.224 438.242 580.176 439.266 582.416C440.354 584.592 440.898 586.992 440.898 589.616C440.898 590.448 440.834 591.696 440.706 593.36C440.578 595.28 440.514 596.848 440.514 598.064C440.514 598.64 440.45 599.376 440.322 600.272C440.194 601.424 440.13 602.384 440.13 603.152C440.13 603.984 440.386 604.784 440.898 605.552C441.41 606.32 442.114 606.96 443.01 607.472C443.842 607.92 444.386 608.4 444.642 608.912C444.898 609.424 445.026 610 445.026 610.64C445.026 611.28 444.61 612.08 443.778 613.04C443.01 613.936 442.242 614.384 441.474 614.384ZM422.274 596.048C419.778 596.048 417.57 596.528 415.65 597.488C413.73 598.448 412.77 600.144 412.77 602.576C412.77 603.792 413.186 604.816 414.018 605.648C414.914 606.48 415.874 606.896 416.898 606.896C419.65 606.896 421.954 606.608 423.81 606.032C425.666 605.456 427.906 604.4 430.53 602.864C430.85 601.84 431.042 600.4 431.106 598.544C431.106 597.84 431.138 597.296 431.202 596.912C427.746 596.336 424.77 596.048 422.274 596.048ZM479.124 592.4C479.636 592.72 480.628 593.328 482.1 594.224C483.636 595.056 484.66 596.048 485.172 597.2C485.684 598.352 485.94 599.952 485.94 602C485.94 604.304 485.268 606.352 483.924 608.144C482.58 609.872 480.852 611.216 478.74 612.176C477.204 612.88 475.316 613.424 473.076 613.808C470.9 614.192 469.172 614.384 467.892 614.384C466.612 614.384 464.948 614.192 462.9 613.808C460.916 613.424 459.54 613.072 458.772 612.752C456.788 611.6 455.06 610.192 453.588 608.528C452.18 606.864 451.476 605.168 451.476 603.44C451.476 602.16 451.892 601.168 452.724 600.464C453.556 599.696 454.644 599.312 455.988 599.312C456.628 599.312 457.3 599.568 458.004 600.08C458.708 600.528 459.188 601.008 459.444 601.52C460.148 603.184 461.332 604.432 462.996 605.264C464.66 606.096 466.356 606.512 468.084 606.512C470.324 606.512 472.404 606.16 474.324 605.456C476.244 604.688 477.204 603.664 477.204 602.384C477.204 601.808 477.044 601.36 476.724 601.04C476.468 600.656 476.084 600.272 475.572 599.888C474.676 599.248 473.332 598.736 471.54 598.352C469.748 597.904 468.596 597.616 468.084 597.488C465.46 596.912 462.9 596.048 460.404 594.896C457.908 593.68 455.924 592.24 454.452 590.576C452.98 588.912 452.244 586.768 452.244 584.144C452.244 582.416 452.884 580.624 454.164 578.768C455.444 576.848 456.884 575.504 458.484 574.736C459.636 574.288 461.556 573.808 464.244 573.296C466.996 572.784 468.852 572.528 469.812 572.528C471.284 572.528 472.884 572.688 474.612 573.008C476.34 573.264 477.652 573.712 478.548 574.352C480.276 575.376 481.684 576.464 482.772 577.616C483.86 578.704 484.404 579.952 484.404 581.36C484.404 582.064 484.244 582.832 483.924 583.664C483.604 584.432 483.22 584.912 482.772 585.104C481.812 585.552 480.692 585.776 479.412 585.776C478.836 585.776 478.356 585.616 477.972 585.296C477.652 584.976 477.204 584.464 476.628 583.76C475.924 582.672 475.252 582.032 474.612 581.84C473.844 581.648 472.724 581.424 471.252 581.168C469.78 580.848 468.788 580.688 468.276 580.688C466.804 580.688 465.268 581.104 463.668 581.936C462.132 582.768 461.364 583.728 461.364 584.816C461.364 585.392 461.588 585.84 462.036 586.16C462.548 586.48 463.06 586.768 463.572 587.024C464.148 587.28 464.532 587.44 464.724 587.504C466.068 588.144 467.54 588.688 469.14 589.136C470.804 589.584 471.828 589.872 472.212 590C475.668 590.832 477.972 591.632 479.124 592.4Z" fill="white"/>
</svg>
